<svg xmlns="http://www.w3.org/2000/svg" viewBox="0 0 20 20" fill="none"><svg x="0.536" y="0" width="18.93" height="20" viewBox="0 0 18.927 20" preserveAspectRatio="none" overflow="visible"><g> <path d="M18.927 4.25636C18.927 4.13229 18.8901 4.01103 18.821 3.90798C18.7519 3.80492 18.6538 3.72472 18.539 3.67757L9.70126 0.0469277C9.54892 -0.0156426 9.37806 -0.0156426 9.22572 0.0469277L0.387944 3.67757C0.273185 3.72471 0.175031 3.80491 0.105955 3.90797C0.0368787 4.01102 -1.67652e-06 4.13229 0 4.25636V15.7436C-1.67652e-06 15.8677 0.0368787 15.989 0.105955 16.092C0.175031 16.1951 0.273185 16.2753 0.387944 16.3224L9.22572 19.9531C9.37779 20.0157 9.54842 20.0156 9.70048 19.953C9.70803 19.9505 9.37342 20.0878 18.539 16.3224C18.6538 16.2753 18.7519 16.1951 18.821 16.092C18.8901 15.989 18.927 15.8677 18.927 15.7436V4.25636ZM9.46349 7.26316L6.2071 5.92541L13.2445 2.85545L16.7187 4.28267L9.46349 7.26316ZM1.25143 5.24248L4.06094 6.39666V9.65288C4.06094 9.99844 4.3411 10.2786 4.68665 10.2786C5.0322 10.2786 5.31237 9.99844 5.31237 9.65288V6.91076L8.83777 8.35902V18.4408L1.25143 15.3242V5.24248ZM9.46349 1.30215L11.6326 2.19325L4.59522 5.26321L2.20831 4.28264L9.46349 1.30215ZM10.0892 8.35902L17.6755 5.24248V15.3242L10.0892 18.4408V8.35902Z" fill="currentColor"/> </g></svg></svg>
