<svg width="19.0422" height="20" viewBox="0 0 19.0422 20" fill="none" xmlns="http://www.w3.org/2000/svg">
<g id="1">
<path id="Vector" d="M1.00227 9.5008C0.36884 8.15467 0.0280659 6.68558 0.0031405 5.19352C-0.0199874 4.53596 0.0848084 3.88023 0.311517 3.26395C0.538226 2.64766 0.882384 2.08296 1.32425 1.60223C1.76611 1.12151 2.29699 0.73422 2.88641 0.462591C3.47583 0.190962 4.1122 0.0403385 4.75901 0.0193611C5.62925 -0.0642825 6.50387 0.124392 7.26574 0.560122C8.02761 0.995852 8.64037 1.65784 9.02197 2.45745V9.43308L1.00227 9.5008Z" fill="#D3D8DE"/>
<path id="Vector_2" d="M9.02123 20C6.13494 17.1479 3.61086 13.94 1.50776 10.4508H9.02123V20Z" fill="#ADB4C1"/>
<path id="Vector_3" d="M17.5483 10.4508C15.4366 13.9338 12.9133 17.1407 10.0348 20V10.4508H17.5483Z" fill="black"/>
<path id="Vector_4" d="M10.0212 2.45859C10.4043 1.66021 11.0173 0.999327 11.7788 0.563815C12.5403 0.128302 13.4141 -0.0612028 14.2841 0.0205003C14.928 0.0397765 15.5618 0.187884 16.1494 0.456357C16.7369 0.724831 17.2667 1.10841 17.7084 1.58516C18.1501 2.06191 18.495 2.62249 18.7235 3.23486C18.952 3.84723 19.0595 4.49937 19.04 5.15402C19.0112 6.63691 18.6706 8.09636 18.0408 9.43422H10.0478L10.0212 2.45859Z" fill="#737F8C"/>
</g>
</svg>
